<?xml version="1.0" encoding="UTF-8"?>
<svg width="64px" height="64px" viewBox="0 0 64 64" version="1.1" xmlns="http://www.w3.org/2000/svg" xmlns:xlink="http://www.w3.org/1999/xlink">
    <!-- Generator: Sketch 42 (36781) - http://www.bohemiancoding.com/sketch -->
    <title>Group 2</title>
    <desc>Created with Sketch.</desc>
    <defs>
        <linearGradient x1="100%" y1="2.53425551%" x2="-5.7585724%" y2="2.53425557%" id="linearGradient-1">
            <stop stop-color="#FFFFFF" offset="0%"></stop>
            <stop stop-color="#DBDBDB" offset="48.2576695%"></stop>
            <stop stop-color="#FFFFFF" offset="100%"></stop>
        </linearGradient>
    </defs>
    <g id="home" stroke="none" stroke-width="1" fill="none" fill-rule="evenodd">
        <g id="Artboard">
            <g id="Group-2">
                <rect id="Rectangle-11" fill="#005689" x="0" y="0" width="64" height="64"></rect>
                <g id="Group" transform="translate(2.133333, 0.493333)">
                    <path d="M8.03668871,20.9505528 C8.89183128,20.8348652 9.72628697,20.3366433 10.2985987,19.3399647 C11.2421524,17.6967701 10.447443,15.7416694 10.2985987,15.2534891 C10.1497545,14.7653089 8.79171001,12.3840058 6.13537367,11.7570881 C5.81084047,11.6804956 4.71298403,11.5147123 4.39015394,11.5444756 C4.2217674,11.56 0.387132611,11.7767958 0.387132611,14.0820117 C0.387132611,14.883159 3.52280527,14.0584863 4.39015394,16.4166381 C4.7583444,17.4176761 5.06332478,19.1563794 5.24065062,19.4396625 C5.27997336,19.5024817 5.03917069,19.8532589 5.99991989,20.4633301 C6.96066908,21.0734013 7.24699961,21.0573855 8.03668871,20.9505528 Z" id="Oval" fill="#FFFFFF"></path>
                    <path d="M30.4533685,19.0724854 C31.2803346,20.0755744 28.8322688,22.6589834 27.5734279,23.288778 C27.5734279,23.288778 28.3742817,22.9871914 27.5734279,23.288778 C26.7725742,23.5903647 27.5734279,23.288778 27.5734279,23.288778 C29.7638868,21.2995682 27.9610951,19.6869951 25.7593329,19.6869951 L25.7593329,19.6869951 C25.7593329,19.6869951 19.5906869,18.9574684 13.221967,25.7667973 C10.0278132,29.1819332 8.03897091,33.1120924 6.56254806,36.3580407 C5.66654376,38.3279259 5.57329224,39.431645 4.84555565,43.9966189 C4.12037974,48.5455301 6.5580452,49.789258 6.56254806,49.7872457 C6.56705092,49.7852334 6.56254806,49.7872457 6.56254806,49.7872457 C6.95084833,53.6125335 4.63544375,54.3039828 3.50728484,53.8577681 L3.50728484,53.8577681 C2.22510927,53.8577681 3.50728484,53.8577681 3.50728484,53.8577681 C1.48655285,53.0670827 0.524830556,48.9046604 1.2071981,45.52255 C1.2071981,45.52255 1.03941243,46.1613191 1.2071981,45.52255 C1.37498377,44.883781 3.38655283,35.1340302 13.9035791,24.7239568 C21.2059493,17.495848 29.3397883,18.4713738 30.4533685,19.0724854 C31.5669487,19.6735969 30.4533685,19.0724854 30.4533685,19.0724854 Z" id="Rectangle" fill="url(#linearGradient-1)"></path>
                    <path d="M44.6079437,28.7450223 C51.4465296,30.3383089 54.6289285,23.2536455 53.7082182,20.2339344 C53.2917788,18.8681123 52.6408173,17.2791312 49.9140201,16.148788 C47.1872229,15.0184448 44.2344621,15.6364554 42.24,16.36 C36.2816818,18.5215397 34.4672347,20.0499685 32.6959601,20.9451997 C32.2877444,21.1515186 38.2106266,17.9675101 43.0742453,16.7071474 C47.9378641,15.4467847 49.1997255,16.7519217 49.6454488,17.2157033 C50.8707366,18.4906332 51.0780011,20.8024263 48.1391478,24.0925999 C45.3524198,27.2124628 42.24,26.720181 39.9444543,25.7436953 C38.8047102,25.2588678 43.1414175,28.403344 44.6079437,28.7450223 Z" id="Oval-2" fill="#C10435"></path>
                    <path d="M23.7670826,2.77164822 C24.066401,2.72413989 26.3076293,2.35931026 28.2535979,4.97278606 C28.7121328,5.58860781 29.1080656,6.21117633 29.5553891,7.81101425 C30.0027127,9.41085216 29.8516131,8.81473274 29.8666667,8.91297137 C30.2722084,11.5595049 29.7472963,13.6981556 29.8666667,13.193399 C30.1447379,12.0175775 30.2217196,6.10305206 28.9735122,3.54103299 C27.8736317,1.28346363 25.8251944,0.75618363 24.0690731,0.75618363 C21.5095025,0.75618363 18.8246723,2.98876294 19.52,3.88 C19.7260564,4.14411303 21.1640252,4.86439378 21.6285066,4.62491165 C22.6597855,4.09319428 22.7461584,2.93369111 23.7670826,2.77164822 Z" id="Oval-3" fill="#FFFFFF"></path>
                    <path d="M40.8554698,55.7351327 C41.2583846,56.0171504 44.4969855,55.5863098 47.3475751,57.3789242 C48.3573573,58.0139332 49.1805514,59.5514443 50.7398801,60.2958729 C52.2992088,61.0403015 58.6228819,62.1960467 60.4901212,58.8202025 C66.1840156,48.5260205 32.5049058,20.3143308 34.2866339,22.4037958 C41.0523064,30.338023 54.5584437,48.720473 54.5584437,54.4518827 C54.5584437,57.9809181 39.9294551,55.0869743 40.8554698,55.7351327 Z" id="Oval-5" fill="#FFFFFF"></path>
                    <path d="M27.340899,37.260048 C29.9035002,37.260048 32.0252257,35.5299002 33.1407286,31.5066667 C33.8972055,28.778316 34.0565653,24.9364946 33.9013983,25.6959444 C33.4692858,27.8108765 33.2433719,28.8871905 32.7194989,29.771969 C32.1627675,30.7122428 31.2252951,32.9718386 29.0056471,33.5076185 C24.3356748,34.6348592 22.9884459,32.3850778 22.4139853,31.5066667 C22.1824431,31.1526141 22.3496681,32.7049652 22.4139853,32.9139469 C22.9330128,34.600388 24.7782978,37.260048 27.340899,37.260048 Z" id="Oval-4" fill="#FFFFFF"></path>
                </g>
            </g>
        </g>
    </g>
</svg>