<?xml version="1.0" encoding="UTF-8"?>
<svg width="302px" height="391px" viewBox="0 0 302 391" version="1.1" xmlns="http://www.w3.org/2000/svg" xmlns:xlink="http://www.w3.org/1999/xlink">
    <!-- Generator: Sketch 41.2 (35397) - http://www.bohemiancoding.com/sketch -->
    <title>Combined Shape</title>
    <desc>Created with Sketch.</desc>
    <defs>
        <linearGradient x1="50%" y1="0%" x2="50%" y2="100%" id="linearGradient-1">
            <stop stop-color="#FFFFFF" offset="0%"></stop>
            <stop stop-color="#07022D" offset="100%"></stop>
        </linearGradient>
    </defs>
    <g id="Page-1" stroke="none" stroke-width="1" fill="none" fill-rule="evenodd">
        <g id="Tablet-9″-Landscape" transform="translate(-666.000000, -169.000000)" stroke="url(#linearGradient-1)" stroke-width="8">
            <path d="M791.861181,558.108923 C791.861181,558.108923 866.923542,299.625305 899.318038,296.136497 C931.712534,292.647689 942.601252,413.789191 952.061069,413.789191 C973.314758,413.789191 960.2466,329.846259 952.061069,303.009933 C944.439585,278.02284 928.467289,243.764105 904.705654,220.278866 C880.944019,196.793626 871.971304,187.46861 837.115041,176.686686 C815.70963,170.065452 782.537179,173.404916 755.755078,184.953811 C736.394286,193.302512 716.165696,208.806582 708.134164,236.07655 C701.306643,259.25846 708.134164,272.642301 711.546559,292.249974 C711.646636,292.825018 717.613292,322.193504 705.395221,336.864075 C693.17715,351.534646 669.033597,351.807141 670.029908,353.390821 C674.264201,360.121409 691.992958,382.318036 701.402751,394.867487 C703.021017,397.025701 711.546559,394.969988 711.546559,396.839247 C711.546559,398.708506 707.312478,401.968082 708.134164,402.7384 C720.974162,414.775702 750.180135,433.480077 763.239353,429.760841 C775.769357,426.192323 841.04656,339.647908 841.04656,339.647908 C842.305326,337.779826 799.708699,295.519619 768.620103,303.009933 C737.531506,310.500247 741.217169,321.300501 741.217169,321.300501" id="Combined-Shape"></path>
        </g>
    </g>
</svg>