<?xml version="1.0" encoding="UTF-8"?>
<svg width="903px" height="260px" viewBox="0 0 903 260" version="1.1" xmlns="http://www.w3.org/2000/svg" xmlns:xlink="http://www.w3.org/1999/xlink">
    <!-- Generator: Sketch 41.2 (35397) - http://www.bohemiancoding.com/sketch -->
    <title>USST</title>
    <desc>Created with Sketch.</desc>
    <defs></defs>
    <g id="Page-1" stroke="none" stroke-width="1" fill="none" fill-rule="evenodd">
        <g id="Tablet-9″-Landscape" transform="translate(-66.000000, -286.000000)" fill="#000000">
            <path d="M66.2,291.1 L66.2,445.1 C66.2,477.65 74.6,502.5 91.4,520 C108.2,537.15 133.05,545.9 165.95,545.9 C198.85,545.9 223.7,537.15 240.85,519.65 C257.3,502.5 265.7,477.65 265.7,445.1 L265.7,291.1 L237,291.1 L237,445.45 C237,469.95 231.4,488.5 220.55,501.1 C208.65,514.05 190.45,520.7 165.95,520.7 C141.1,520.7 122.9,514.05 111.35,501.1 C100.15,488.5 94.9,469.95 94.9,445.45 L94.9,291.1 L66.2,291.1 Z M408.422422,286.2 C382.522422,286.2 361.172422,291.8 344.722422,303 C326.172422,314.9 317.072422,332.05 317.072422,353.75 C317.072422,374.75 326.522422,390.85 345.772422,402.05 C353.822422,406.25 373.072422,413.25 403.172422,422.35 C431.172422,430.4 449.022422,436.35 456.022422,440.55 C472.472422,449.3 480.872422,461.55 480.872422,477.3 C480.872422,490.6 474.572422,501.1 461.972422,508.8 C449.372422,516.5 432.572422,520.35 412.272422,520.35 C389.872422,520.35 373.072422,515.45 361.522422,506.35 C348.922422,496.2 341.222422,480.1 338.772422,458.4 L310.422422,458.4 C312.522422,489.2 323.372422,511.95 342.972422,527 C359.772422,539.6 382.872422,545.9 412.272422,545.9 C442.022422,545.9 465.472422,539.6 482.972422,527.35 C500.472422,514.75 509.222422,497.25 509.222422,475.55 C509.222422,452.8 498.722422,435.3 478.072422,422.7 C467.572422,416.4 445.872422,408.35 412.972422,398.55 C388.822422,391.55 373.422422,386.3 367.122422,382.8 C352.772422,375.1 345.772422,364.95 345.772422,352.35 C345.772422,338 351.722422,327.5 363.622422,320.5 C374.122422,314.2 388.472422,311.4 407.022422,311.4 C427.322422,311.4 443.072422,315.6 454.272422,324.7 C465.122422,333.45 472.122422,346.75 475.272422,364.95 L503.622422,364.95 C501.172422,338.7 491.722422,318.75 474.922422,305.45 C458.822422,292.5 436.422422,286.2 408.422422,286.2 Z M637.944845,286.2 C612.044845,286.2 590.694845,291.8 574.244845,303 C555.694845,314.9 546.594845,332.05 546.594845,353.75 C546.594845,374.75 556.044845,390.85 575.294845,402.05 C583.344845,406.25 602.594845,413.25 632.694845,422.35 C660.694845,430.4 678.544845,436.35 685.544845,440.55 C701.994845,449.3 710.394845,461.55 710.394845,477.3 C710.394845,490.6 704.094845,501.1 691.494845,508.8 C678.894845,516.5 662.094845,520.35 641.794845,520.35 C619.394845,520.35 602.594845,515.45 591.044845,506.35 C578.444845,496.2 570.744845,480.1 568.294845,458.4 L539.944845,458.4 C542.044845,489.2 552.894845,511.95 572.494845,527 C589.294845,539.6 612.394845,545.9 641.794845,545.9 C671.544845,545.9 694.994845,539.6 712.494845,527.35 C729.994845,514.75 738.744845,497.25 738.744845,475.55 C738.744845,452.8 728.244845,435.3 707.594845,422.7 C697.094845,416.4 675.394845,408.35 642.494845,398.55 C618.344845,391.55 602.944845,386.3 596.644845,382.8 C582.294845,375.1 575.294845,364.95 575.294845,352.35 C575.294845,338 581.244845,327.5 593.144845,320.5 C603.644845,314.2 617.994845,311.4 636.544845,311.4 C656.844845,311.4 672.594845,315.6 683.794845,324.7 C694.644845,333.45 701.644845,346.75 704.794845,364.95 L733.144845,364.95 C730.694845,338.7 721.244845,318.75 704.444845,305.45 C688.344845,292.5 665.944845,286.2 637.944845,286.2 Z M764.217267,291.1 L764.217267,315.95 L852.417267,315.95 L852.417267,541 L880.767267,541 L880.767267,315.95 L968.967267,315.95 L968.967267,291.1 L764.217267,291.1 Z" id="USST"></path>
        </g>
    </g>
</svg>