<?xml version="1.0" encoding="UTF-8"?>
<svg width="30px" height="21px" viewBox="0 0 30 21" version="1.1" xmlns="http://www.w3.org/2000/svg" xmlns:xlink="http://www.w3.org/1999/xlink">
    <!-- Generator: Sketch 41.2 (35397) - http://www.bohemiancoding.com/sketch -->
    <title>552cc6845b21b</title>
    <desc>Created with Sketch.</desc>
    <defs></defs>
    <g id="Page-1" stroke="none" stroke-width="1" fill="none" fill-rule="evenodd">
        <g id="Tablet-9″-Landscape" transform="translate(-958.000000, -51.000000)" fill="#F1F1F1">
            <path d="M967.600047,54.6375938 L986.799906,54.6375938 C987.463703,54.6375938 988,54.0999844 988,53.4375 C988,52.7752031 987.463703,52.2376406 986.799906,52.2376406 L967.600047,52.2376406 C966.937563,52.2376406 966.399953,52.7752031 966.399953,53.4375 C966.399953,54.0999844 966.937563,54.6375938 967.600047,54.6375938 Z M986.799906,60.6375937 L967.600047,60.6375937 C966.937563,60.6375937 966.399953,61.1752031 966.399953,61.8374531 C966.399953,62.4999375 966.937563,63.0375469 967.600047,63.0375469 L986.799906,63.0375469 C987.463703,63.0375469 988,62.4999375 988,61.8374531 C988,61.1752031 987.463703,60.6375937 986.799906,60.6375937 Z M986.799906,69.0375469 L967.600047,69.0375469 C966.937563,69.0375469 966.399953,69.5738437 966.399953,70.2376406 C966.399953,70.9012031 966.937563,71.4375 967.600047,71.4375 L986.799906,71.4375 C987.463703,71.4375 988,70.9012031 988,70.2376406 C988,69.5738437 987.463703,69.0375469 986.799906,69.0375469 Z M958,53.4375 C958,52.8092812 958.25875,52.1847187 958.702937,51.7404844 C959.147172,51.2962969 959.771734,51.0375469 960.399953,51.0375469 C961.028359,51.0375469 961.652781,51.2962969 962.096969,51.7404844 C962.541391,52.1847187 962.799906,52.8092812 962.799906,53.4375 L958,53.4375 Z" id="552cc6845b21b"></path>
        </g>
    </g>
</svg>