<?xml version="1.0" encoding="UTF-8"?>
<svg width="429px" height="160px" viewBox="0 0 429 160" version="1.1" xmlns="http://www.w3.org/2000/svg" xmlns:xlink="http://www.w3.org/1999/xlink">
    <!-- Generator: Sketch 41.2 (35397) - http://www.bohemiancoding.com/sketch -->
    <title>SnowKing Liu</title>
    <desc>Created with Sketch.</desc>
    <defs></defs>
    <g id="Page-1" stroke="none" stroke-width="1" fill="none" fill-rule="evenodd">
        <g id="Tablet-9″-Landscape" transform="translate(-75.000000, -213.000000)" fill="#F1F1F1">
            <path d="M101.392,213.752 C94.658,213.752 89.107,215.208 84.83,218.12 C80.007,221.214 77.641,225.673 77.641,231.315 C77.641,236.775 80.098,240.961 85.103,243.873 C87.196,244.965 92.201,246.785 100.027,249.151 C107.307,251.244 111.948,252.791 113.768,253.883 C118.045,256.158 120.229,259.343 120.229,263.438 C120.229,266.896 118.591,269.626 115.315,271.628 C112.039,273.63 107.671,274.631 102.393,274.631 C96.569,274.631 92.201,273.357 89.198,270.991 C85.922,268.352 83.92,264.166 83.283,258.524 L75.912,258.524 C76.458,266.532 79.279,272.447 84.375,276.36 C88.743,279.636 94.749,281.274 102.393,281.274 C110.128,281.274 116.225,279.636 120.775,276.451 C125.325,273.175 127.6,268.625 127.6,262.983 C127.6,257.068 124.87,252.518 119.501,249.242 C116.771,247.604 111.129,245.511 102.575,242.963 C96.296,241.143 92.292,239.778 90.654,238.868 C86.923,236.866 85.103,234.227 85.103,230.951 C85.103,227.22 86.65,224.49 89.744,222.67 C92.474,221.032 96.205,220.304 101.028,220.304 C106.306,220.304 110.401,221.396 113.313,223.762 C116.134,226.037 117.954,229.495 118.773,234.227 L126.144,234.227 C125.507,227.402 123.05,222.215 118.682,218.757 C114.496,215.39 108.672,213.752 101.392,213.752 Z M160.33983,231.679 C157.24583,231.679 154.42483,232.407 151.87683,233.863 C149.32883,235.228 147.23583,237.23 145.59783,239.869 L145.59783,232.953 L138.31783,232.953 L138.31783,280 L145.59783,280 L145.59783,251.608 C145.87083,247.331 147.23583,243.964 149.78383,241.416 C152.14983,239.05 154.97083,237.867 158.24683,237.867 C166.43683,237.867 170.62283,242.417 170.62283,251.608 L170.62283,280 L177.90283,280 L177.90283,251.062 C177.90283,238.14 171.98783,231.679 160.33983,231.679 Z M212.37166,231.679 C205.27366,231.679 199.72266,234.045 195.53666,238.959 C191.53266,243.6 189.53066,249.424 189.53066,256.522 C189.53066,263.529 191.53266,269.353 195.53666,273.903 C199.72266,278.817 205.27366,281.274 212.37166,281.274 C219.37866,281.274 225.02066,278.817 229.29766,273.903 C233.21066,269.353 235.21266,263.529 235.21266,256.522 C235.21266,249.424 233.21066,243.6 229.20666,238.959 C225.02066,234.045 219.37866,231.679 212.37166,231.679 Z M212.37166,237.776 C217.28566,237.776 221.19866,239.687 224.11066,243.509 C226.56766,246.967 227.84166,251.244 227.84166,256.522 C227.84166,261.618 226.56766,265.986 224.11066,269.444 C221.19866,273.266 217.28566,275.177 212.37166,275.177 C207.36666,275.177 203.45366,273.266 200.72366,269.444 C198.17566,265.986 196.99266,261.709 196.99266,256.522 C196.99266,251.244 198.17566,246.967 200.72366,243.509 C203.45366,239.687 207.36666,237.776 212.37166,237.776 Z M241.65349,232.953 L257.66949,280 L264.49449,280 L275.59649,242.144 L286.51649,280 L293.43249,280 L309.44849,232.953 L301.44049,232.953 L289.88349,271.082 L278.96349,232.953 L272.13849,232.953 L261.21849,271.082 L249.66149,232.953 L241.65349,232.953 Z M361.025319,215.026 L326.081319,248.787 L326.081319,215.026 L318.619319,215.026 L318.619319,280 L326.081319,280 L326.081319,257.25 L336.182319,247.695 L364.847319,280 L374.857319,280 L341.369319,242.872 L370.762319,215.026 L361.025319,215.026 Z M388.669149,215.208 C387.122149,215.208 385.848149,215.663 384.756149,216.755 C383.664149,217.665 383.209149,218.939 383.209149,220.577 C383.209149,222.124 383.664149,223.398 384.756149,224.49 C385.848149,225.491 387.122149,226.037 388.669149,226.037 C390.216149,226.037 391.490149,225.491 392.582149,224.49 C393.674149,223.398 394.220149,222.124 394.220149,220.577 C394.220149,218.939 393.674149,217.665 392.582149,216.755 C391.490149,215.663 390.216149,215.208 388.669149,215.208 Z M385.029149,232.953 L385.029149,280 L392.309149,280 L392.309149,232.953 L385.029149,232.953 Z M430.144979,231.679 C427.050979,231.679 424.229979,232.407 421.681979,233.863 C419.133979,235.228 417.040979,237.23 415.402979,239.869 L415.402979,232.953 L408.122979,232.953 L408.122979,280 L415.402979,280 L415.402979,251.608 C415.675979,247.331 417.040979,243.964 419.588979,241.416 C421.954979,239.05 424.775979,237.867 428.051979,237.867 C436.241979,237.867 440.427979,242.417 440.427979,251.608 L440.427979,280 L447.707979,280 L447.707979,251.062 C447.707979,238.14 441.792979,231.679 430.144979,231.679 Z M480.538809,231.679 C473.986809,231.679 468.799809,233.954 464.977809,238.595 C461.155809,242.963 459.335809,248.514 459.335809,255.43 C459.335809,262.255 461.155809,267.806 464.977809,272.174 C468.799809,276.633 473.986809,278.908 480.538809,278.908 C487.636809,278.908 492.914809,275.723 496.372809,269.444 L496.372809,277.725 C496.372809,288.099 491.640809,293.377 482.176809,293.377 C477.899809,293.377 474.714809,292.558 472.621809,291.011 C470.528809,289.555 469.163809,287.189 468.617809,284.004 L461.337809,284.004 C462.156809,289.1 464.249809,292.922 467.616809,295.47 C470.892809,298.018 475.806809,299.292 482.176809,299.292 C496.463809,299.292 503.652809,291.739 503.652809,276.724 L503.652809,232.953 L496.372809,232.953 L496.372809,241.052 C492.914809,234.773 487.636809,231.679 480.538809,231.679 Z M481.630809,237.685 C486.271809,237.685 489.911809,239.323 492.641809,242.781 C495.189809,245.875 496.463809,250.152 496.463809,255.43 C496.463809,260.526 495.189809,264.712 492.641809,267.897 C489.911809,271.173 486.271809,272.811 481.539809,272.811 C476.443809,272.811 472.712809,270.991 470.164809,267.533 C467.889809,264.439 466.797809,260.344 466.797809,255.43 C466.797809,250.152 468.071809,245.875 470.619809,242.781 C473.258809,239.323 476.898809,237.685 481.630809,237.685 Z M79.552,306.026 L79.552,371 L124.506,371 L124.506,364.539 L86.923,364.539 L86.923,306.026 L79.552,306.026 Z M140.31983,306.208 C138.77283,306.208 137.49883,306.663 136.40683,307.755 C135.31483,308.665 134.85983,309.939 134.85983,311.577 C134.85983,313.124 135.31483,314.398 136.40683,315.49 C137.49883,316.491 138.77283,317.037 140.31983,317.037 C141.86683,317.037 143.14083,316.491 144.23283,315.49 C145.32483,314.398 145.87083,313.124 145.87083,311.577 C145.87083,309.939 145.32483,308.665 144.23283,307.755 C143.14083,306.663 141.86683,306.208 140.31983,306.208 Z M136.67983,323.953 L136.67983,371 L143.95983,371 L143.95983,323.953 L136.67983,323.953 Z M159.77366,323.953 L159.77366,353.073 C159.77366,365.813 165.41566,372.274 176.88166,372.274 C183.25166,372.274 188.34766,369.362 192.16966,363.72 L192.16966,371 L199.44966,371 L199.44966,323.953 L192.16966,323.953 L192.16966,352.618 C191.62366,356.622 190.07666,359.898 187.52866,362.446 C185.07166,364.812 182.25066,366.086 179.15666,366.086 C174.87966,366.086 171.78566,364.903 169.87466,362.719 C167.96366,360.535 167.05366,357.168 167.05366,352.709 L167.05366,323.953 L159.77366,323.953 Z" id="SnowKing-Liu"></path>
        </g>
    </g>
</svg>