<?xml version="1.0" encoding="UTF-8"?>
<svg width="149px" height="27px" viewBox="0 0 149 27" version="1.1" xmlns="http://www.w3.org/2000/svg" xmlns:xlink="http://www.w3.org/1999/xlink">
    <!-- Generator: Sketch 42 (36781) - http://www.bohemiancoding.com/sketch -->
    <title>SnowKingLiu</title>
    <desc>Created with Sketch.</desc>
    <defs></defs>
    <g id="home" stroke="none" stroke-width="1" fill="none" fill-rule="evenodd">
        <g id="homepage" transform="translate(-20.000000, -23.000000)" fill="#02000B">
            <path d="M95.122063,27.852 C95.0740627,27.9960007 94.9960635,28.1219995 94.888063,28.23 C94.7800624,28.3380005 94.6540637,28.4219997 94.510063,28.482 C94.3660622,28.5420003 94.2280636,28.5839999 94.096063,28.608 C93.9640623,28.6320001 93.8740632,28.644 93.826063,28.644 C93.5140614,28.644 93.2080645,28.7699987 92.908063,29.022 C92.6080615,29.2740013 92.3020645,29.5559984 91.990063,29.868 L87.562063,34.944 C88.1380658,35.2080013 88.8580586,35.5079983 89.722063,35.844 C90.5860673,36.1800017 91.4860583,36.5759977 92.422063,37.032 C93.3580676,37.4880023 94.2700585,38.0039971 95.158063,38.58 C96.0460674,39.1560029 96.8020598,39.8039964 97.426063,40.524 C97.8820652,40.8360016 98.1760623,41.0759992 98.308063,41.244 C98.4400636,41.4120008 98.506063,41.5559994 98.506063,41.676 C98.506063,41.7960006 98.4940631,41.9039995 98.470063,42 C98.4460628,42.0960005 98.5060622,42.2159993 98.650063,42.36 C98.6980632,42.5760011 98.6800634,42.7439994 98.596063,42.864 C98.5120625,42.9840006 98.4820628,43.0799996 98.506063,43.152 C98.5300631,43.2480005 98.4880635,43.2720002 98.380063,43.224 C98.2720624,43.1759998 98.1580636,43.0920006 98.038063,42.972 C97.2700591,42.2039962 96.4300675,41.5440028 95.518063,40.992 C94.6060584,40.4399972 93.6400681,39.9420022 92.620063,39.498 C91.6000579,39.0539978 90.5200687,38.6520018 89.380063,38.292 C88.2400573,37.9319982 87.070069,37.5600019 85.870063,37.176 C85.3180602,37.0559994 84.9820636,36.8280017 84.862063,36.492 C84.7660625,36.2759989 84.7600625,36.0540011 84.844063,35.826 C84.9280634,35.5979989 85.0060626,35.4000008 85.078063,35.232 C85.2460638,34.8959983 85.3540627,34.5600017 85.402063,34.224 C85.4500632,33.8879983 85.5820619,33.5400018 85.798063,33.18 C86.398066,32.579997 87.0160598,31.8900039 87.652063,31.11 C88.2880661,30.3299961 88.9480595,29.6160032 89.632063,28.968 C90.3160664,28.3199968 91.0480591,27.8040019 91.828063,27.42 C92.6080669,27.0359981 93.4540584,26.9159993 94.366063,27.06 C94.7500649,27.0840001 95.0080623,27.191999 95.140063,27.384 C95.2720636,27.576001 95.2660637,27.7319994 95.122063,27.852 Z M24.8737148,26.5311957 C23.1997148,27.2123914 23.1877172,27.7279983 22.6957148,28.064 C22.2037123,28.4000017 21.8497158,28.771998 21.6337148,29.18 C21.489714,29.4920016 21.4297146,29.8219983 21.4537148,30.17 C21.4777149,30.5180017 21.561714,30.8479984 21.7057148,31.16 C21.8497155,31.4720016 22.0237137,31.7539987 22.2277148,32.006 C22.4317158,32.2580013 22.6297138,32.4319995 22.8217148,32.528 C23.4217178,32.8400016 24.0877111,33.0439995 24.8197148,33.14 C25.5517184,33.2360005 26.3077109,33.2959999 27.0877148,33.32 C27.8677187,33.3440001 28.6417109,33.3799998 29.4097148,33.428 C30.1777186,33.4760002 30.8857115,33.595999 31.5337148,33.788 C31.8697164,33.9080006 32.1877133,34.0039996 32.4877148,34.076 C32.7877163,34.1480004 33.0577136,34.2499993 33.2977148,34.382 C33.537716,34.5140007 33.7597137,34.6939989 33.9637148,34.922 C34.1677158,35.1500011 34.341714,35.4799978 34.4857148,35.912 C34.7017158,36.8240046 34.6537163,37.7119957 34.3417148,38.576 C34.0297132,39.4640044 33.5137184,40.2499966 32.7937148,40.934 C32.0737112,41.6180034 31.2577193,42.163998 30.3457148,42.572 C29.6257112,42.8840016 28.8877185,43.0939995 28.1317148,43.202 C27.375711,43.3100005 26.6437183,43.2920007 25.9357148,43.148 C25.2277112,43.0039993 24.5797177,42.728002 23.9917148,42.32 C23.4037118,41.911998 22.9297166,41.3480036 22.5697148,40.628 C22.3537137,40.1719977 22.2457148,39.6200032 22.2457148,38.972 C22.2217146,38.8999996 22.2217146,38.8280004 22.2457148,38.756 C22.293715,38.5879992 22.4497134,38.504 22.7137148,38.504 C22.8097152,38.4559998 22.935714,38.4859995 23.0917148,38.594 C23.2477155,38.7020005 23.3617144,38.7679999 23.4337148,38.792 C23.6257157,38.8160001 23.8117139,38.9419989 23.9917148,39.17 C24.1717157,39.3980011 24.3457139,39.5839993 24.5137148,39.728 C25.1137178,40.3520031 25.791711,40.7299993 26.5477148,40.862 C27.3037185,40.9940007 28.0357112,40.9940007 28.7437148,40.862 C29.4517183,40.7299993 30.1057118,40.5200014 30.7057148,40.232 C31.3057178,39.9439986 31.7497133,39.6800012 32.0377148,39.44 C32.2057156,39.2959993 32.3917137,39.122001 32.5957148,38.918 C32.7997158,38.713999 32.9977138,38.4860013 33.1897148,38.234 C33.3817157,37.9819987 33.5437141,37.7120014 33.6757148,37.424 C33.8077154,37.1359986 33.8737148,36.8360016 33.8737148,36.524 C33.8017144,36.2359986 33.6097163,36.0140008 33.2977148,35.858 C32.9857132,35.7019992 32.5897172,35.5760005 32.1097148,35.48 C31.2697106,35.3359993 30.4417188,35.2580001 29.6257148,35.246 C28.8097107,35.2339999 28.0057187,35.2399999 27.2137148,35.264 C26.4217108,35.2880001 25.6417186,35.3 24.8737148,35.3 C24.1057109,35.3 23.3617184,35.2160008 22.6417148,35.048 C22.4257137,34.9999998 22.2157158,34.9220005 22.0117148,34.814 C21.8077137,34.7059995 21.6097157,34.5920006 21.4177148,34.472 C21.2257138,34.3519994 21.0817152,34.196001 20.9857148,34.004 C20.8897143,33.811999 20.7817154,33.6080011 20.6617148,33.392 C20.5417142,33.1759989 20.4277153,32.9540011 20.3197148,32.726 C20.2117142,32.4979989 20.133715,32.2520013 20.0857148,31.988 C19.9657142,31.2199962 19.9717141,30.4280041 20.1037148,29.612 C20.2357154,28.7959959 20.5417124,28.0400035 21.0217148,27.344 C21.4057167,26.7679971 22.1617115,26.2700021 22.8217148,25.85 C23.4817181,25.4299979 24.7476483,24.9068056 25.5756524,24.6788045 C25.9756302,24.5686657 26.4424874,24.4105598 27.4104858,24.145979 C28.4463651,23.8628444 29.8618589,23.8848085 30.3457148,23.8910117 C30.4439913,23.8922717 31.6674594,24.0786895 32.7937148,24.3078443 C33.9199701,24.5369991 34.0638328,24.5408395 34.3417148,24.6788045 C34.6686189,24.8411084 34.9050168,24.9768213 34.9313586,25.2117204 C34.9498303,25.3764389 35.5035933,25.9758079 34.4857148,26.3468586 C34.0342976,26.5114152 33.8737148,26.6934802 33.4018264,26.5311957 C32.9299381,26.3689112 31.0322029,25.651444 29.7910267,25.651444 C27.8830267,25.651444 26.5477148,25.85 24.8737148,26.5311957 Z M39.5257148,35.984 C39.9337168,35.575998 40.3477127,35.1380023 40.7677148,34.67 C41.1877169,34.2019977 41.6257125,33.7520022 42.0817148,33.32 C42.537717,32.8879978 43.0057124,32.4980017 43.4857148,32.15 C43.9657172,31.8019983 44.4697121,31.5200011 44.9977148,31.304 C45.1177154,31.2559998 45.2317142,31.2439999 45.3397148,31.268 C45.4477153,31.2920001 45.5617142,31.2800002 45.6817148,31.232 L46.1857148,31.232 C46.3297155,31.232 46.4617142,31.2799995 46.5817148,31.376 C46.9177164,31.5920011 47.1877137,31.897998 47.3917148,32.294 C47.5957158,32.690002 47.769714,33.1279976 47.9137148,33.608 C48.0097152,33.8720013 48.0637147,34.1239988 48.0757148,34.364 C48.0877148,34.6040012 48.1537142,34.8799984 48.2737148,35.192 C48.4177155,35.6480023 48.5797139,36.1099977 48.7597148,36.578 C48.9397157,37.0460023 49.005715,37.4959978 48.9577148,37.928 C48.9337146,38.0480006 48.897715,38.1499996 48.8497148,38.234 C48.8017145,38.3180004 48.7417151,38.4199994 48.6697148,38.54 C48.6217145,38.6360005 48.5377154,38.7559993 48.4177148,38.9 C48.2977142,39.0440007 48.1777154,39.1519996 48.0577148,39.224 C47.9377142,39.3200005 47.8597149,39.3979997 47.8237148,39.458 C47.7877146,39.5180003 47.6737157,39.5839996 47.4817148,39.656 C47.1697132,39.1999977 46.9297156,38.7080026 46.7617148,38.18 C46.5937139,37.6519974 46.4497154,37.1000029 46.3297148,36.524 C46.2097142,35.9479971 46.1017152,35.360003 46.0057148,34.76 C45.9097143,34.159997 45.7897155,33.5480031 45.6457148,32.924 C45.5977145,32.7559992 45.447716,32.6600001 45.1957148,32.636 C44.9437135,32.6119999 44.6557164,32.6899991 44.3317148,32.87 C44.0077131,33.0500009 43.6657166,33.3319981 43.3057148,33.716 C42.945713,34.1000019 42.6217162,34.591997 42.3337148,35.192 C42.1417138,35.6240022 41.9617156,36.0739977 41.7937148,36.542 C41.6257139,37.0100023 41.4397158,37.4779977 41.2357148,37.946 C41.0317137,38.4140023 40.7917161,38.8699978 40.5157148,39.314 C40.2397134,39.7580022 39.9097167,40.1599982 39.5257148,40.52 C39.4057142,40.6400006 39.321715,40.6520005 39.2737148,40.556 C39.2257145,40.4599995 39.1057157,40.3760004 38.9137148,40.304 C38.769714,40.2559998 38.6917148,40.2080002 38.6797148,40.16 C38.6677147,40.1119998 38.6257151,39.9680012 38.5537148,39.728 C38.409714,39.2239975 38.2597155,38.6480032 38.1037148,38 C37.947714,37.3519968 37.7797157,36.6680036 37.5997148,35.948 C37.4197139,35.2279964 37.2337157,34.5020037 37.0417148,33.77 C36.8497138,33.0379963 36.6577157,32.3480032 36.4657148,31.7 L36.2497148,31.052 C36.297715,30.9559995 36.3877141,30.8720004 36.5197148,30.8 C36.6517154,30.7279996 36.789714,30.6680002 36.9337148,30.62 C37.0777155,30.5719998 37.2337139,30.5839996 37.4017148,30.656 C37.5697156,30.7280004 37.7017143,30.764 37.7977148,30.764 C38.0617161,30.764 38.2957137,30.9319983 38.4997148,31.268 C38.7037158,31.6040017 38.877714,32.0299974 39.0217148,32.546 C39.1657155,33.0620026 39.2797143,33.6259969 39.3637148,34.238 C39.4477152,34.8500031 39.5017146,35.4319972 39.5257148,35.984 Z M56.0857148,30.476 L55.4737148,31.088 C55.6657157,31.0639999 55.9597128,31.0100004 56.3557148,30.926 C56.7517167,30.8419996 57.1417128,30.8 57.5257148,30.8 C57.8137162,30.8480002 58.0537138,30.9439993 58.2457148,31.088 C58.4377157,31.2320007 58.5577145,31.507998 58.6057148,31.916 C58.7017152,32.4920029 58.8517137,33.0739971 59.0557148,33.662 C59.2597158,34.2500029 59.4157142,34.8319971 59.5237148,35.408 C59.6317153,35.9840029 59.6257154,36.5299974 59.5057148,37.046 C59.3857142,37.5620026 59.0617174,38.023998 58.5337148,38.432 C57.981712,39.2720042 57.3757181,39.9739972 56.7157148,40.538 C56.0557115,41.1020028 55.3657184,41.4319995 54.6457148,41.528 C54.1657124,41.6000004 53.6377176,41.534001 53.0617148,41.33 C52.4857119,41.125999 52.0657161,40.7720025 51.8017148,40.268 C51.7297144,40.3160002 51.669715,40.3220002 51.6217148,40.286 C51.5737145,40.2499998 51.525715,40.2080002 51.4777148,40.16 C51.4297145,40.1119998 51.3877149,40.0999999 51.3517148,40.124 C51.3157146,40.1480001 51.2857149,40.1360002 51.2617148,40.088 C51.2377146,40.0159996 51.2257148,39.9200006 51.2257148,39.8 L51.2257148,39.656 C51.2497149,38.8159958 51.3277141,37.9700043 51.4597148,37.118 C51.5917154,36.2659957 51.7957134,35.438004 52.0717148,34.634 C52.3477161,33.829996 52.7077125,33.0740035 53.1517148,32.366 C53.595717,31.6579965 54.1657113,31.0280028 54.8617148,30.476 C55.101716,30.3319993 55.3657133,30.2839998 55.6537148,30.332 L55.8337148,30.332 C55.9057151,30.332 55.9897143,30.3799995 56.0857148,30.476 Z M54.8617148,32.924 C54.717714,32.8999999 54.6337149,32.8520004 54.6097148,32.78 C54.5857146,32.7079996 54.5917146,32.6180005 54.6277148,32.51 C54.6637149,32.4019995 54.7117145,32.2760007 54.7717148,32.132 C54.8317151,31.9879993 54.8617148,31.8440007 54.8617148,31.7 C54.3577122,32.1560023 53.9677161,32.7079968 53.6917148,33.356 C53.4157134,34.0040032 53.2177154,34.6699966 53.0977148,35.354 C52.9777142,36.0380034 52.9237147,36.7039968 52.9357148,37.352 C52.9477148,38.0000032 52.9777145,38.5639976 53.0257148,39.044 C53.073715,39.452002 53.1577142,39.7819987 53.2777148,40.034 C53.3977154,40.2860013 53.5777136,40.4359998 53.8177148,40.484 C54.0817161,40.5560004 54.4297126,40.4840011 54.8617148,40.268 C55.4857179,39.9559984 55.9897128,39.5240028 56.3737148,38.972 C56.7577167,38.4199972 57.0697136,37.8320031 57.3097148,37.208 C57.4057152,36.8719983 57.4837145,36.4700023 57.5437148,36.002 C57.6037151,35.5339977 57.5857152,35.096002 57.4897148,34.688 C57.3697142,34.1359972 57.0637172,33.7340013 56.5717148,33.482 C56.0797123,33.2299987 55.509718,33.0440006 54.8617148,32.924 Z M78.8737148,27.884 C78.5617132,28.9640054 78.285716,30.0319947 78.0457148,31.088 C77.8057136,32.1440053 77.5477161,33.1879948 77.2717148,34.22 C76.9957134,35.2520052 76.6957164,36.265995 76.3717148,37.262 C76.0477131,38.258005 75.657717,39.2119954 75.2017148,40.124 C75.2017148,40.2680007 75.1477153,40.3819996 75.0397148,40.466 C74.9317142,40.5500004 74.7937156,40.6399995 74.6257148,40.736 C74.4337138,40.8560006 74.2357158,40.9999992 74.0317148,41.168 C73.8277137,41.3360008 73.6417156,41.4919993 73.4737148,41.636 C73.3057139,41.8040008 73.1377156,41.9539993 72.9697148,42.086 C72.8017139,42.2180007 72.6457155,42.284 72.5017148,42.284 C72.357714,42.284 72.2377152,42.1760011 72.1417148,41.96 C71.9497138,41.359997 71.7757155,40.7240034 71.6197148,40.052 C71.463714,39.3799966 71.3137155,38.6960035 71.1697148,38 C71.025714,37.3039965 70.8817155,36.6200034 70.7377148,35.948 C70.593714,35.2759966 70.4497155,34.6280031 70.3057148,34.004 L65.6257148,40.088 C65.5297143,40.2560008 65.4337152,40.4179992 65.3377148,40.574 C65.2417143,40.7300008 65.1217155,40.8319998 64.9777148,40.88 C64.9297145,40.9040001 64.881715,40.9339998 64.8337148,40.97 C64.7857145,41.0060002 64.7317151,41.0359999 64.6717148,41.06 C64.6117145,41.0840001 64.5397152,41.0720002 64.4557148,41.024 C64.3717143,40.9759998 64.2817152,40.8800007 64.1857148,40.736 C63.8497131,40.1599971 63.5377162,39.5300034 63.2497148,38.846 C62.9617133,38.1619966 62.7037159,37.4480037 62.4757148,36.704 C62.2477136,35.9599963 62.0437157,35.2160037 61.8637148,34.472 C61.6837139,33.7279963 61.5217155,32.9960036 61.3777148,32.276 C61.3297145,32.083999 61.3177146,31.9100008 61.3417148,31.754 C61.3657149,31.5979992 61.4017145,31.424001 61.4497148,31.232 C61.497715,30.9679987 61.593714,30.7160012 61.7377148,30.476 C61.8577154,30.283999 61.9537144,30.1160007 62.0257148,29.972 C62.0977151,29.8279993 62.205714,29.7440001 62.3497148,29.72 C62.5177156,29.72 62.5957148,29.6960002 62.5837148,29.648 C62.5717147,29.5999998 62.6257142,29.5999998 62.7457148,29.648 C62.8657154,29.6960002 62.9617144,29.8039992 63.0337148,29.972 C63.1057151,30.1400008 63.1657145,30.2719995 63.2137148,30.368 C63.3097152,30.9440029 63.4237141,31.5859965 63.5557148,32.294 C63.6877154,33.0020035 63.825714,33.7159964 63.9697148,34.436 C64.1137155,35.1560036 64.263714,35.8459967 64.4197148,36.506 C64.5757155,37.1660033 64.725714,37.7359976 64.8697148,38.216 C65.1337161,37.9279986 65.4937125,37.4480034 65.9497148,36.776 C66.405717,36.1039966 66.909712,35.3900038 67.4617148,34.634 C68.0137175,33.8779962 68.5897118,33.1580034 69.1897148,32.474 C69.7897178,31.7899966 70.365712,31.2800017 70.9177148,30.944 L70.9177148,31.556 C71.0617155,31.4119993 71.1937142,31.3220002 71.3137148,31.286 C71.4337154,31.2499998 71.5537142,31.232 71.6737148,31.232 C71.7937154,31.232 71.9017143,31.2439999 71.9977148,31.268 C72.0937152,31.2920001 72.1417148,31.3879992 72.1417148,31.556 C72.2377152,32.0360024 72.3457142,32.5819969 72.4657148,33.194 C72.5857154,33.8060031 72.6997142,34.4359968 72.8077148,35.084 C72.9157153,35.7320032 73.0177143,36.3619969 73.1137148,36.974 C73.2097152,37.5860031 73.3057143,38.1199977 73.4017148,38.576 C73.7137163,38.0479974 74.0077134,37.4540033 74.2837148,36.794 C74.5597161,36.1339967 74.8357134,35.4620034 75.1117148,34.778 C75.3877161,34.0939966 75.6697133,33.4100034 75.9577148,32.726 C76.2457162,32.0419966 76.5577131,31.4120029 76.8937148,30.836 C77.0617156,30.5479986 77.2657136,30.2540015 77.5057148,29.954 C77.745716,29.6539985 77.9617138,29.3600014 78.1537148,29.072 C78.2977155,28.8559989 78.4117143,28.652001 78.4957148,28.46 C78.5797152,28.267999 78.7057139,28.076001 78.8737148,27.884 Z M104.109715,29.036 C104.301716,29.228001 104.379715,29.3839994 104.343715,29.504 C104.307715,29.6240006 104.229715,29.6720001 104.109715,29.648 C103.797713,29.648 103.455717,29.6779997 103.083715,29.738 C102.711713,29.7980003 102.315717,29.8459998 101.895715,29.882 C101.475713,29.9180002 101.037717,29.9240001 100.581715,29.9 C100.125712,29.8759999 99.669717,29.7920007 99.2137148,29.648 C99.0217138,29.455999 99.0277137,29.2820008 99.2317148,29.126 C99.4357158,28.9699992 99.5977142,28.7360016 99.7177148,28.424 C99.7897151,28.2079989 99.8917141,28.0580004 100.023715,27.974 C100.155715,27.8899996 100.293714,27.8360001 100.437715,27.812 C100.701716,27.812 101.031713,27.8659995 101.427715,27.974 C101.823717,28.0820005 102.153713,28.1479999 102.417715,28.172 C102.825717,28.2200002 103.161713,28.2859996 103.425715,28.37 C103.689716,28.4540004 103.917714,28.6759982 104.109715,29.036 Z M103.353715,33.932 C103.497715,34.4840028 103.611714,34.9879977 103.695715,35.444 C103.779715,35.9000023 103.839715,36.3379979 103.875715,36.758 C103.911715,37.1780021 103.935715,37.6039978 103.947715,38.036 C103.959715,38.4680022 103.965715,38.9359975 103.965715,39.44 C103.965715,39.5360005 103.911715,39.6379995 103.803715,39.746 C103.695714,39.8540005 103.617715,39.9679994 103.569715,40.088 C103.473714,40.3040011 103.395715,40.4359998 103.335715,40.484 C103.275714,40.5320002 103.173715,40.5919996 103.029715,40.664 C102.693713,40.8080007 102.393716,41.0119987 102.129715,41.276 C101.817713,40.8199977 101.607715,40.292003 101.499715,39.692 C101.391714,39.091997 101.319715,38.4680032 101.283715,37.82 C101.247715,37.1719968 101.211715,36.5180033 101.175715,35.858 C101.139715,35.1979967 101.049715,34.5560031 100.905715,33.932 C100.833714,33.5959983 100.857714,33.3680006 100.977715,33.248 C101.097715,33.1279994 101.229714,33.0440002 101.373715,32.996 C101.541716,32.9479998 101.727714,32.9839994 101.931715,33.104 C102.135716,33.2240006 102.333714,33.3439994 102.525715,33.464 C102.693716,33.5600005 102.855714,33.6139999 103.011715,33.626 C103.167716,33.6380001 103.281714,33.739999 103.353715,33.932 Z M109.797715,35.984 C110.205717,35.575998 110.619713,35.1380023 111.039715,34.67 C111.459717,34.2019977 111.897712,33.7520022 112.353715,33.32 C112.809717,32.8879978 113.277712,32.4980017 113.757715,32.15 C114.237717,31.8019983 114.741712,31.5200011 115.269715,31.304 C115.389715,31.2559998 115.503714,31.2439999 115.611715,31.268 C115.719715,31.2920001 115.833714,31.2800002 115.953715,31.232 L116.457715,31.232 C116.601715,31.232 116.733714,31.2799995 116.853715,31.376 C117.189716,31.5920011 117.459714,31.897998 117.663715,32.294 C117.867716,32.690002 118.041714,33.1279976 118.185715,33.608 C118.281715,33.8720013 118.335715,34.1239988 118.347715,34.364 C118.359715,34.6040012 118.425714,34.8799984 118.545715,35.192 C118.689715,35.6480023 118.851714,36.1099977 119.031715,36.578 C119.211716,37.0460023 119.277715,37.4959978 119.229715,37.928 C119.205715,38.0480006 119.169715,38.1499996 119.121715,38.234 C119.073715,38.3180004 119.013715,38.4199994 118.941715,38.54 C118.893715,38.6360005 118.809715,38.7559993 118.689715,38.9 C118.569714,39.0440007 118.449715,39.1519996 118.329715,39.224 C118.209714,39.3200005 118.131715,39.3979997 118.095715,39.458 C118.059715,39.5180003 117.945716,39.5839996 117.753715,39.656 C117.441713,39.1999977 117.201716,38.7080026 117.033715,38.18 C116.865714,37.6519974 116.721715,37.1000029 116.601715,36.524 C116.481714,35.9479971 116.373715,35.360003 116.277715,34.76 C116.181714,34.159997 116.061715,33.5480031 115.917715,32.924 C115.869715,32.7559992 115.719716,32.6600001 115.467715,32.636 C115.215713,32.6119999 114.927716,32.6899991 114.603715,32.87 C114.279713,33.0500009 113.937717,33.3319981 113.577715,33.716 C113.217713,34.1000019 112.893716,34.591997 112.605715,35.192 C112.413714,35.6240022 112.233716,36.0739977 112.065715,36.542 C111.897714,37.0100023 111.711716,37.4779977 111.507715,37.946 C111.303714,38.4140023 111.063716,38.8699978 110.787715,39.314 C110.511713,39.7580022 110.181717,40.1599982 109.797715,40.52 C109.677714,40.6400006 109.593715,40.6520005 109.545715,40.556 C109.497715,40.4599995 109.377716,40.3760004 109.185715,40.304 C109.041714,40.2559998 108.963715,40.2080002 108.951715,40.16 C108.939715,40.1119998 108.897715,39.9680012 108.825715,39.728 C108.681714,39.2239975 108.531716,38.6480032 108.375715,38 C108.219714,37.3519968 108.051716,36.6680036 107.871715,35.948 C107.691714,35.2279964 107.505716,34.5020037 107.313715,33.77 C107.121714,33.0379963 106.929716,32.3480032 106.737715,31.7 L106.521715,31.052 C106.569715,30.9559995 106.659714,30.8720004 106.791715,30.8 C106.923715,30.7279996 107.061714,30.6680002 107.205715,30.62 C107.349715,30.5719998 107.505714,30.5839996 107.673715,30.656 C107.841716,30.7280004 107.973714,30.764 108.069715,30.764 C108.333716,30.764 108.567714,30.9319983 108.771715,31.268 C108.975716,31.6040017 109.149714,32.0299974 109.293715,32.546 C109.437715,33.0620026 109.551714,33.6259969 109.635715,34.238 C109.719715,34.8500031 109.773715,35.4319972 109.797715,35.984 Z M127.977715,29.036 C128.193716,29.6120029 128.457713,30.4639944 128.769715,31.592 C129.081716,32.7200056 129.381713,33.9439934 129.669715,35.264 C129.957716,36.5840066 130.209714,37.9159933 130.425715,39.26 C130.641716,40.6040067 130.749715,41.779995 130.749715,42.788 C130.749715,43.580004 130.671716,44.3659961 130.515715,45.146 C130.359714,45.9260039 130.198866,46.7479964 129.478862,47.468 C129.423555,47.5198504 128.714297,48.2293734 128.337715,48.4539548 C128.022295,48.6420608 127.700449,48.9062577 126.987715,49.062447 C126.274981,49.2186362 125.720218,49.2034026 124.161715,49.062447 C122.603212,48.9214913 120.566875,48.3493867 120.46034,48.3112936 C120.208683,48.2213097 112.132159,45.1479244 111.075882,44.7363526 C110.80307,44.6300529 110.401186,44.3905802 109.954521,44.0923651 C108.671787,43.2359485 107.019739,41.8950673 106.994803,41.8325858 C106.904269,41.6057342 106.606763,41.4821634 106.546111,41.1624431 C106.485459,40.8427228 106.462947,40.8054113 106.424714,40.574 C106.346241,40.0990323 106.314427,40.0805592 106.304507,39.9018194 C106.282516,39.5055763 106.78615,39.5816352 106.791285,39.5771421 C106.896365,39.4825704 110.24168,41.9387487 114.28576,43.7003528 C118.329839,45.461957 124.860784,47.2038259 125.760784,47.0721722 C126.660784,46.9405185 126.693713,46.7780019 127.077715,46.406 C127.461717,46.0339981 127.797713,45.6680018 128.085715,45.308 C128.373716,44.9479982 128.541715,44.6240014 128.589715,44.336 C128.637715,43.9039978 128.661715,43.4300026 128.661715,42.914 C128.661715,42.3979974 128.631715,41.8700027 128.571715,41.33 C128.511714,40.7899973 128.433715,40.2500027 128.337715,39.71 C128.241714,39.1699973 128.121715,38.6720023 127.977715,38.216 L127.905715,38 C127.617713,38.5280026 127.311716,38.9539984 126.987715,39.278 C126.663713,39.6020016 126.297717,39.859999 125.889715,40.052 C125.697714,40.1480005 125.505716,40.2139998 125.313715,40.25 C125.121714,40.2860002 124.929716,40.3279998 124.737715,40.376 C124.545714,40.4240002 124.353716,40.4899996 124.161715,40.574 C123.969714,40.6580004 123.801715,40.7 123.657715,40.7 C123.345713,40.6759999 123.039716,40.5440012 122.739715,40.304 C122.439713,40.0639988 122.265715,39.7880016 122.217715,39.476 C122.193715,39.3079992 122.145715,39.1340009 122.073715,38.954 C122.001714,38.7739991 121.953715,38.588001 121.929715,38.396 C121.881715,37.6999965 121.869715,36.9320042 121.893715,36.092 C121.917715,35.2519958 121.995714,34.4060043 122.127715,33.554 C122.259715,32.7019957 122.457713,31.8860039 122.721715,31.106 C122.985716,30.3259961 123.321713,29.6480029 123.729715,29.072 C123.897716,28.879999 124.077714,28.6940009 124.269715,28.514 C124.461716,28.3339991 124.701713,28.244 124.989715,28.244 C125.181716,28.244 125.355714,28.1720007 125.511715,28.028 C125.667716,27.8839993 125.841714,27.8239999 126.033715,27.848 C126.441717,27.8960002 126.813713,27.9979992 127.149715,28.154 C127.485716,28.3100008 127.761714,28.6039978 127.977715,29.036 Z M126.753715,31.88 C126.705715,31.5439983 126.645715,31.1960018 126.573715,30.836 C126.501714,30.4759982 126.405715,30.2840001 126.285715,30.26 C126.189714,30.2359999 126.099715,30.2419998 126.015715,30.278 C125.931714,30.3140002 125.865715,30.3439999 125.817715,30.368 C125.505713,30.4880006 125.223716,30.8539969 124.971715,31.466 C124.719713,32.0780031 124.503716,32.7619962 124.323715,33.518 C124.143714,34.2740038 124.005715,35.0059965 123.909715,35.714 C123.813714,36.4220035 123.789715,36.9199986 123.837715,37.208 C123.885715,37.5680018 123.981714,37.9099984 124.125715,38.234 C124.269715,38.5580016 124.497713,38.7559996 124.809715,38.828 C124.905715,38.8520001 125.061714,38.8220004 125.277715,38.738 C125.493716,38.6539996 125.721714,38.5340008 125.961715,38.378 C126.201716,38.2219992 126.441714,38.0540009 126.681715,37.874 C126.921716,37.6939991 127.113714,37.5320007 127.257715,37.388 C127.329715,37.3159996 127.359715,37.0940019 127.347715,36.722 C127.335715,36.3499981 127.299715,35.9000026 127.239715,35.372 C127.179714,34.8439974 127.107715,34.2680031 127.023715,33.644 C126.939714,33.0199969 126.849715,32.4320028 126.753715,31.88 Z M136.113715,39.656 C137.289721,39.5119993 138.39971,39.344001 139.443715,39.152 C140.48772,38.959999 141.47771,38.7440012 142.413715,38.504 C143.349719,38.2639988 144.25571,37.9940015 145.131715,37.694 C146.007719,37.3939985 146.87771,37.0760017 147.741715,36.74 C148.101717,36.5719992 148.425713,36.488 148.713715,36.488 C148.905716,36.488 148.989715,36.5719992 148.965715,36.74 C149.013715,36.8600006 149.061715,36.9259999 149.109715,36.938 C149.157715,36.9500001 149.181715,37.0999986 149.181715,37.388 C149.181715,37.6520013 149.109715,37.9039988 148.965715,38.144 C148.821714,38.3840012 148.689715,38.5759993 148.569715,38.72 C148.353714,38.9600012 147.969718,39.2179986 147.417715,39.494 C146.865712,39.7700014 146.205719,40.0519986 145.437715,40.34 C144.669711,40.6280014 143.853719,40.9159986 142.989715,41.204 C142.12571,41.4920014 141.279719,41.7559988 140.451715,41.996 C139.623711,42.2360012 138.867718,42.4459991 138.183715,42.626 C137.499711,42.8060009 136.965717,42.9319996 136.581715,43.004 C136.365714,43.0520002 136.161716,42.9860009 135.969715,42.806 C135.777714,42.6259991 135.621715,42.5120002 135.501715,42.464 C135.165713,42.2959992 134.979715,42.0800013 134.943715,41.816 C134.907715,41.5519987 134.805716,41.2280019 134.637715,40.844 C134.445714,40.4839982 134.313715,40.106002 134.241715,39.71 C134.169714,39.313998 134.121715,38.9240019 134.097715,38.54 C134.049715,37.5559951 134.049715,36.5720049 134.097715,35.588 C134.145715,34.6039951 134.193715,33.5900052 134.241715,32.546 C134.289715,31.5019948 134.313715,30.4220056 134.313715,29.306 C134.313715,28.1899944 134.253715,26.9960064 134.133715,25.724 C134.181715,25.6039994 134.271714,25.5919995 134.403715,25.688 C134.535715,25.7840005 134.673714,25.8559998 134.817715,25.904 C134.937715,25.9520002 135.045714,25.9939998 135.141715,26.03 C135.237715,26.0660002 135.321714,26.1439994 135.393715,26.264 C135.633716,26.6960022 135.819714,27.4459947 135.951715,28.514 C136.083715,29.5820053 136.167715,30.7759934 136.203715,32.096 C136.239715,33.4160066 136.245715,34.7539932 136.221715,36.11 C136.197715,37.4660068 136.161715,38.647995 136.113715,39.656 Z M155.661715,29.036 C155.853716,29.228001 155.931715,29.3839994 155.895715,29.504 C155.859715,29.6240006 155.781715,29.6720001 155.661715,29.648 C155.349713,29.648 155.007717,29.6779997 154.635715,29.738 C154.263713,29.7980003 153.867717,29.8459998 153.447715,29.882 C153.027713,29.9180002 152.589717,29.9240001 152.133715,29.9 C151.677712,29.8759999 151.221717,29.7920007 150.765715,29.648 C150.573714,29.455999 150.579714,29.2820008 150.783715,29.126 C150.987716,28.9699992 151.149714,28.7360016 151.269715,28.424 C151.341715,28.2079989 151.443714,28.0580004 151.575715,27.974 C151.707715,27.8899996 151.845714,27.8360001 151.989715,27.812 C152.253716,27.812 152.583713,27.8659995 152.979715,27.974 C153.375717,28.0820005 153.705713,28.1479999 153.969715,28.172 C154.377717,28.2200002 154.713713,28.2859996 154.977715,28.37 C155.241716,28.4540004 155.469714,28.6759982 155.661715,29.036 Z M154.905715,33.932 C155.049715,34.4840028 155.163714,34.9879977 155.247715,35.444 C155.331715,35.9000023 155.391715,36.3379979 155.427715,36.758 C155.463715,37.1780021 155.487715,37.6039978 155.499715,38.036 C155.511715,38.4680022 155.517715,38.9359975 155.517715,39.44 C155.517715,39.5360005 155.463715,39.6379995 155.355715,39.746 C155.247714,39.8540005 155.169715,39.9679994 155.121715,40.088 C155.025714,40.3040011 154.947715,40.4359998 154.887715,40.484 C154.827714,40.5320002 154.725715,40.5919996 154.581715,40.664 C154.245713,40.8080007 153.945716,41.0119987 153.681715,41.276 C153.369713,40.8199977 153.159715,40.292003 153.051715,39.692 C152.943714,39.091997 152.871715,38.4680032 152.835715,37.82 C152.799715,37.1719968 152.763715,36.5180033 152.727715,35.858 C152.691715,35.1979967 152.601715,34.5560031 152.457715,33.932 C152.385714,33.5959983 152.409714,33.3680006 152.529715,33.248 C152.649715,33.1279994 152.781714,33.0440002 152.925715,32.996 C153.093716,32.9479998 153.279714,32.9839994 153.483715,33.104 C153.687716,33.2240006 153.885714,33.3439994 154.077715,33.464 C154.245716,33.5600005 154.407714,33.6139999 154.563715,33.626 C154.719716,33.6380001 154.833714,33.739999 154.905715,33.932 Z M168.081715,31.196 C168.081715,32.8760084 168.099715,34.4359928 168.135715,35.876 C168.171715,37.3160072 168.309714,38.731993 168.549715,40.124 C168.573715,40.2680007 168.537715,40.4239992 168.441715,40.592 C168.345714,40.7600008 168.249715,40.9039994 168.153715,41.024 C168.009714,41.1920008 167.877715,41.3539992 167.757715,41.51 C167.637714,41.6660008 167.517715,41.7679998 167.397715,41.816 C167.157714,41.9360006 167.013715,41.9600004 166.965715,41.888 C166.917715,41.8159996 166.881715,41.7200006 166.857715,41.6 C166.761714,41.1439977 166.635716,40.5260039 166.479715,39.746 C166.323714,38.9659961 166.221715,38.180004 166.173715,37.388 C165.885713,37.8680024 165.567716,38.3539975 165.219715,38.846 C164.871713,39.3380025 164.499717,39.787998 164.103715,40.196 C163.707713,40.604002 163.305717,40.9699984 162.897715,41.294 C162.489713,41.6180016 162.093717,41.8519993 161.709715,41.996 C161.541714,42.0680004 161.427715,42.0800002 161.367715,42.032 C161.307714,41.9839998 161.205715,41.9360002 161.061715,41.888 C160.845714,41.7919995 160.635716,41.7020004 160.431715,41.618 C160.227714,41.5339996 160.065715,41.4080008 159.945715,41.24 C159.681713,40.7839977 159.465716,40.3400022 159.297715,39.908 C159.033713,39.2119965 158.871715,38.4800038 158.811715,37.712 C158.751714,36.9439962 158.745715,36.1760038 158.793715,35.408 C158.841715,34.6399962 158.925714,33.8960036 159.045715,33.176 C159.165715,32.4559964 159.285714,31.796003 159.405715,31.196 C159.429715,31.0759994 159.489714,30.9980002 159.585715,30.962 C159.681715,30.9259998 159.741715,30.8480006 159.765715,30.728 C159.813715,30.535999 159.903714,30.4040004 160.035715,30.332 C160.167715,30.2599996 160.305714,30.2000002 160.449715,30.152 C160.641716,30.1039998 160.791714,30.0620002 160.899715,30.026 C161.007715,29.9899998 161.157714,29.972 161.349715,29.972 C161.133714,30.6680035 160.965715,31.4599956 160.845715,32.348 C160.725714,33.2360044 160.671715,34.1419954 160.683715,35.066 C160.695715,35.9900046 160.779714,36.8839957 160.935715,37.748 C161.091716,38.6120043 161.325713,39.3679968 161.637715,40.016 C162.093717,39.7039984 162.543713,39.3200023 162.987715,38.864 C163.431717,38.4079977 163.845713,37.9340025 164.229715,37.442 C164.613717,36.9499975 164.955713,36.4760023 165.255715,36.02 C165.555716,35.5639977 165.777714,35.1800016 165.921715,34.868 C166.065715,34.3879976 166.155715,33.8420031 166.191715,33.23 C166.227715,32.6179969 166.245715,32.0720024 166.245715,31.592 C166.221715,31.3759989 166.239714,31.2080006 166.299715,31.088 L166.497715,30.692 C166.545715,30.6199996 166.575715,30.5480004 166.587715,30.476 C166.599715,30.4039996 166.641714,30.3440002 166.713715,30.296 C166.761715,30.2479998 166.815714,30.1820004 166.875715,30.098 C166.935715,30.0139996 167.001714,29.972 167.073715,29.972 C167.217715,29.972 167.313715,30.0439993 167.361715,30.188 C167.409715,30.3320007 167.481714,30.4399996 167.577715,30.512 C167.697715,30.6320006 167.811714,30.7219997 167.919715,30.782 C168.027715,30.8420003 168.081715,30.9799989 168.081715,31.196 Z M83.422063,28.176 C83.422063,28.776003 83.5120621,29.4419963 83.692063,30.174 C83.8720639,30.9060037 83.962063,31.7039957 83.962063,32.568 C83.962063,33.7920061 83.9860627,35.0159939 84.034063,36.24 C84.0820632,37.4640061 84.2620614,38.6879939 84.574063,39.912 C84.8860645,40.2240016 85.0660627,40.5299985 85.114063,40.83 C85.1620632,41.1300015 85.186063,41.4359984 85.186063,41.748 C85.186063,41.940001 85.1080637,42.239998 84.952063,42.648 C84.7960622,43.056002 84.6700634,43.3679989 84.574063,43.584 C83.6620584,42.2159932 82.9960651,40.7100082 82.576063,39.066 C82.1560609,37.4219918 81.9040634,35.7420086 81.820063,34.026 C81.7360625,32.3099914 81.790062,30.5940086 81.982063,28.878 C82.1740639,27.1619914 82.4260614,25.5360077 82.738063,24 C82.8820637,24.1440007 82.9780627,24.3299989 83.026063,24.558 C83.0740632,24.7860011 83.1220627,25.0319987 83.170063,25.296 C83.2180632,25.4160006 83.2600628,25.5959988 83.296063,25.836 C83.3320631,26.0760012 83.3560629,26.3339986 83.368063,26.61 L83.404063,27.438 C83.416063,27.7140014 83.422063,27.9599989 83.422063,28.176 Z" id="SnowKingLiu"></path>
        </g>
    </g>
</svg>