<?xml version="1.0" encoding="UTF-8"?>
<svg width="36px" height="39px" viewBox="0 0 36 39" version="1.1" xmlns="http://www.w3.org/2000/svg" xmlns:xlink="http://www.w3.org/1999/xlink">
    <!-- Generator: Sketch 42 (36781) - http://www.bohemiancoding.com/sketch -->
    <title>552cd6d7b8ec1</title>
    <desc>Created with Sketch.</desc>
    <defs></defs>
    <g id="home" stroke="none" stroke-width="1" fill="none" fill-rule="evenodd">
        <g id="homepage" transform="translate(-94.000000, -319.000000)" fill="#FFFFFF">
            <path d="M124.41027,332.675618 C124.41027,325.645571 118.642838,319.947526 111.526932,319.947526 C104.411248,319.947526 98.6436486,325.645571 98.6436486,332.675618 C98.6436486,336.735006 100.573378,340.34162 103.568132,342.673043 C98.1984976,345.377391 94.4186089,350.761381 94,357.018925 L95.9268919,357.018925 C96.3789984,351.159179 100.181479,345.971222 105.488291,343.908059 C107.174579,344.709442 109.530485,345.404156 111.526932,345.404156 C113.523378,345.404156 115.40659,344.943536 117.092878,344.142152 L118.414642,343.375324 L119.485119,342.673043 C122.480541,340.34162 124.41027,336.735006 124.41027,332.675618 Z M122.426399,344.541898 C122.206439,344.35538 121.925827,344.227788 121.611773,344.227788 C120.9638,344.227788 120.439523,344.475348 120.439523,345.122208 C120.439523,345.569529 120.698434,345.944513 121.065517,346.142272 C124.580652,348.671675 126.357361,352.483726 126.707528,357.018925 L129.054141,357.018925 C128.717218,351.981206 126.198442,347.495586 122.426399,344.541898 Z" id="552cd6d7b8ec1"></path>
        </g>
    </g>
</svg>