<?xml version="1.0" encoding="UTF-8"?>
<svg width="35px" height="35px" viewBox="0 0 35 35" version="1.1" xmlns="http://www.w3.org/2000/svg" xmlns:xlink="http://www.w3.org/1999/xlink">
    <!-- Generator: Sketch 42 (36781) - http://www.bohemiancoding.com/sketch -->
    <title>552cd55c195f2</title>
    <desc>Created with Sketch.</desc>
    <defs></defs>
    <g id="home" stroke="none" stroke-width="1" fill="none" fill-rule="evenodd">
        <g id="homepage" transform="translate(-94.000000, -139.000000)" fill="#FFFFFF">
            <path d="M127.235207,156.49723 C127.665027,156.775014 128.328969,157.073043 128.70566,156.701036 C129.137293,156.274942 129.137293,155.583906 128.70566,155.156806 L113.07884,139.729813 C113.07884,139.729813 112.458962,139.009065 111.51371,139.009065 C110.489243,139.009065 109.950595,139.73082 109.950595,139.73082 L94.3235737,155.158367 C93.8921421,155.584662 93.8921421,156.274942 94.3235737,156.702043 C94.7543507,157.127129 95.3624442,156.801957 95.794027,156.376669 L96.8429191,155.341324 L99.0701781,153.183561 L99.0701781,169.867734 C99.0701781,171.676957 100.554984,173.143885 102.387624,173.143885 L108.190977,173.143885 L108.190977,163.272022 C108.190977,162.318914 108.973919,161.546597 109.937804,161.546597 L113.09143,161.546597 C114.055516,161.546597 114.838459,162.318712 114.838459,163.272022 L114.838459,173.143885 L120.641811,173.143885 C122.474451,173.143885 123.959257,171.676957 123.959257,169.867734 L123.959257,153.276374" id="552cd55c195f2"></path>
        </g>
    </g>
</svg>