<?xml version="1.0" encoding="UTF-8"?>
<svg width="36px" height="36px" viewBox="0 0 36 36" version="1.1" xmlns="http://www.w3.org/2000/svg" xmlns:xlink="http://www.w3.org/1999/xlink">
    <!-- Generator: Sketch 42 (36781) - http://www.bohemiancoding.com/sketch -->
    <title>552ce572b3ff0</title>
    <desc>Created with Sketch.</desc>
    <defs></defs>
    <g id="home" stroke="none" stroke-width="1" fill="none" fill-rule="evenodd">
        <g id="homepage" transform="translate(-94.000000, -229.000000)" fill="#FFFFFF">
            <path d="M111.543798,229.000387 C113.946374,229.000387 116.210207,229.462493 118.335539,230.386464 C120.460919,231.310435 122.315532,232.564537 123.899669,234.148674 C125.483854,235.732859 126.737907,237.587424 127.661878,239.712804 C128.585898,241.838184 129.047956,244.101968 129.047956,246.504544 C129.047956,248.933564 128.585898,251.210594 127.661878,253.335925 C126.737907,255.461305 125.483854,257.315919 123.899669,258.900055 C122.315532,260.48424 120.460919,261.738294 118.335539,262.662265 C116.210207,263.586285 113.946374,264.048343 111.543798,264.048343 C109.114779,264.048343 106.837797,263.586285 104.712417,262.662265 C102.587037,261.738294 100.732472,260.48424 99.1482873,258.900055 C97.5641506,257.315919 96.3100483,255.461305 95.3860773,253.335925 C94.4621064,251.210594 94,248.933564 94,246.504544 C94,244.101968 94.4621064,241.838184 95.3860773,239.712804 C96.3100483,237.587424 97.5641506,235.732859 99.1482873,234.148674 C100.732472,232.564537 102.587037,231.310435 104.712417,230.386464 C106.837797,229.462493 109.114779,229.000387 111.543798,229.000387 Z M111.543798,261.632569 C113.629537,261.632569 115.589876,261.236547 117.424814,260.444551 C119.259558,259.652555 120.863515,258.569972 122.236395,257.197141 C123.609227,255.824261 124.691664,254.220449 125.483854,252.385511 C126.275801,250.550573 126.671823,248.590235 126.671823,246.504544 C126.671823,244.418805 126.275801,242.458515 125.483854,240.623577 C124.691664,238.788785 123.609227,237.184827 122.236395,235.811948 C120.863515,234.439116 119.259558,233.356678 117.424814,232.564537 C115.589876,231.772541 113.629537,231.376519 111.543798,231.376519 C109.431664,231.376519 107.458128,231.772541 105.623191,232.564537 C103.788398,233.356678 102.184441,234.439116 100.811561,235.811948 C99.4387293,237.184827 98.3562914,238.788785 97.5641506,240.623577 C96.7721547,242.458515 96.3761326,244.418805 96.3761326,246.504544 C96.3761326,248.590235 96.7721547,250.550573 97.5641506,252.385511 C98.3562914,254.220449 99.4387293,255.824261 100.811561,257.197141 C102.184441,258.569972 103.788398,259.652555 105.623191,260.444551 C107.458128,261.236547 109.431664,261.632569 111.543798,261.632569 Z M111.543798,233.831789 C113.259765,233.831789 114.870394,234.155297 116.375249,234.802072 C117.880104,235.44904 119.200242,236.339945 120.335566,237.475269 C121.470649,238.610546 122.361796,239.930539 123.008522,241.435539 C123.65549,242.940394 123.978805,244.550829 123.978805,246.266989 C123.978805,247.982956 123.65549,249.600159 123.008522,251.118211 C122.361796,252.636312 121.470649,253.96288 120.335566,255.098204 C119.200242,256.233481 117.880104,257.124627 116.375249,257.771354 C114.870394,258.418128 113.259765,258.741637 111.543798,258.741637 C109.827638,258.741637 108.210628,258.418128 106.692576,257.771354 C105.174475,257.124627 103.847714,256.233481 102.712438,255.098204 C101.577307,253.96288 100.686209,252.636312 100.039434,251.118211 C99.3924655,249.600159 99.0691506,247.982956 99.0691506,246.266989 C99.0691506,244.550829 99.3924655,242.940394 100.039434,241.435539 C100.686209,239.930539 101.577307,238.610546 102.712438,237.475269 C103.847714,236.339945 105.174475,235.44904 106.692576,234.802072 C108.210628,234.155297 109.827638,233.831789 111.543798,233.831789 Z" id="552ce572b3ff0"></path>
        </g>
    </g>
</svg>