<?xml version="1.0" encoding="UTF-8"?>
<svg width="20px" height="20px" viewBox="0 0 20 20" version="1.1" xmlns="http://www.w3.org/2000/svg" xmlns:xlink="http://www.w3.org/1999/xlink">
    <!-- Generator: Sketch 42 (36781) - http://www.bohemiancoding.com/sketch -->
    <title>552dc17739dab</title>
    <desc>Created with Sketch.</desc>
    <defs></defs>
    <g id="news" stroke="none" stroke-width="1" fill="none" fill-rule="evenodd">
        <g id="home" transform="translate(-157.000000, -241.000000)" fill="#999999">
            <g id="Group-2" transform="translate(139.000000, 80.000000)">
                <g id="Group-4" transform="translate(18.000000, 158.000000)">
                    <path d="M9.99988084,3.01843709 C4.47718471,3.01843709 0,7.49551588 0,13.0183179 C0,18.5412259 4.47718471,23.0184106 9.99988084,23.0184106 C15.5229212,23.0184106 20,18.5412259 20,13.0183179 C20,7.49551588 15.5229212,3.01843709 9.99988084,3.01843709 Z M16.515262,19.5346259 C16.4386308,19.6112837 16.3381945,19.6495464 16.2377583,19.6495464 C16.137322,19.6495464 16.0367798,19.6112837 15.960228,19.5346259 L9.86274419,13.437248 C9.83512621,13.4104509 9.5541801,13.1235205 9.5541801,12.6178175 L9.5541801,4.494556 C9.5541801,4.27784885 9.72992367,4.10213175 9.94663083,4.10213175 C10.1633115,4.10213175 10.3390551,4.27784885 10.3390551,4.494556 L10.3390551,12.6178175 C10.3390551,12.7914957 10.4191022,12.883432 10.4225181,12.8872715 L16.515262,18.9795919 C16.6685511,19.132775 16.6685511,19.3814428 16.515262,19.5346259 Z" id="552dc17739dab"></path>
                </g>
            </g>
        </g>
    </g>
</svg>